<?xml version="1.0" encoding="UTF-8"?>
<!-- Created with Inkscape (http://www.inkscape.org/) -->
<svg width="1024" height="1024" version="1.1" viewBox="0 0 270.93 270.93" xml:space="preserve" xmlns="http://www.w3.org/2000/svg"><defs><style>.cls-1{fill:#5865f2;}</style></defs><rect width="270.93" height="270.93" fill="#5865f2" stroke-linecap="round" stroke-linejoin="round" stroke-width="5.6459"/><g transform="translate(0 -5.9203)"><path d="m135.73 86.804-0.26251 121.01h84.097a6.6146 6.6146 0 0 0 6.6146-6.6146v-107.78a6.6146 6.6146 0 0 0-6.6146-6.6146h-83.834zm37.966 41.353a28.765 28.765 0 0 1 1.3358 2.7146 38.826 38.826 0 0 1 11.57 0 28.642 28.642 0 0 1 1.3353-2.7146 41.795 41.795 0 0 1 10.426 3.2076c5.7197 8.3629 8.5615 17.795 7.5122 28.678a41.834 41.834 0 0 1-12.795 6.4151 30.606 30.606 0 0 1-2.7383-4.4121 27.299 27.299 0 0 0 4.3207-2.0629c-0.35773-0.24247-0.71149-0.51256-1.0573-0.79479a30.037 30.037 0 0 1-25.566 0c-0.34183 0.26236-0.6956 0.53244-1.0573 0.79479a27.195 27.195 0 0 0 4.3124 2.0588 30.884 30.884 0 0 1-2.7383 4.4163 42.025 42.025 0 0 1-12.787-6.4192c-0.89432-9.3844 0.89445-18.904 7.4926-28.666a42.089 42.089 0 0 1 10.433-3.2158zm-1.2759 16.003c-2.5558 0-4.5429 2.2814-4.5429 5.0638s2.059 5.0441 4.5512 5.0441c2.5399 0 4.5033-2.2618 4.547-5.0441 0.04373-2.7823-1.9995-5.0638-4.5553-5.0638zm16.797 0c-2.5598 0-4.547 2.2814-4.547 5.0638s2.0509 5.0441 4.547 5.0441c2.5399 0 4.4997-2.2618 4.5434-5.0441 0.04371-2.7823-1.9836-5.0638-4.5434-5.0638z" fill="#d9d9d9" stroke-linecap="round" stroke-linejoin="round" stroke-width="8.2497" style="font-variation-settings:'wght' 700"/><path d="m135.47 207.81 10.92-11.841h-10.92v11.841" fill="#989898" style="font-variation-settings:'wght' 700"/><path d="m51.37 74.963a6.6146 6.6146 0 0 0-6.6146 6.6146v107.78a6.6146 6.6146 0 0 0 6.6146 6.6146h95.017l-10.658-121.01h-84.359zm18.934 30.077h21.607c9.231 0 16.345 2.6163 21.343 7.8491 5.0565 5.2329 7.5851 12.759 7.5851 22.578s-2.5286 17.345-7.5851 22.577c-4.9977 5.2329-12.112 7.8496-21.343 7.8496h-21.607v-60.854zm12.876 11.642v37.571h8.7312c4.9389 0 8.849-1.4111 11.73-4.2333 2.881-2.8222 4.3212-7.6729 4.3212-14.552s-1.4402-11.73-4.3212-14.552c-2.881-2.8222-6.7912-4.2333-11.73-4.2333h-8.7312z" fill="#fff" stroke-linecap="round" stroke-linejoin="round" stroke-width="8.2497" style="font-variation-settings:'wght' 700"/></g></svg>
