<?xml version="1.0" encoding="UTF-8" standalone="no"?>
<!-- Created with Inkscape (http://www.inkscape.org/) -->

<svg
   width="1024"
   height="1024"
   viewBox="0 0 270.93334 270.93333"
   version="1.1"
   id="svg1"
   inkscape:version="1.3 (0e150ed6c4, 2023-07-21)"
   sodipodi:docname="inkscape.svg"
   xml:space="preserve"
   xmlns:inkscape="http://www.inkscape.org/namespaces/inkscape"
   xmlns:sodipodi="http://sodipodi.sourceforge.net/DTD/sodipodi-0.dtd"
   xmlns="http://www.w3.org/2000/svg"
   xmlns:svg="http://www.w3.org/2000/svg"><sodipodi:namedview
     id="namedview1"
     pagecolor="#ffffff"
     bordercolor="#999999"
     borderopacity="1"
     inkscape:showpageshadow="0"
     inkscape:pageopacity="0"
     inkscape:pagecheckerboard="0"
     inkscape:deskcolor="#d1d1d1"
     inkscape:document-units="mm"
     inkscape:zoom="1.0378437"
     inkscape:cx="429.25539"
     inkscape:cy="820.45109"
     inkscape:window-width="2560"
     inkscape:window-height="1371"
     inkscape:window-x="0"
     inkscape:window-y="0"
     inkscape:window-maximized="1"
     inkscape:current-layer="layer1"
     showgrid="false" /><defs
     id="defs1"><rect
       x="234.97487"
       y="384.31169"
       width="592.03029"
       height="527.40608"
       id="rect4" /><inkscape:path-effect
       effect="fillet_chamfer"
       id="path-effect4"
       is_visible="true"
       lpeversion="1"
       nodesatellites_param="F,0,0,1,0,0,0,1 @ F,0,1,1,0,6.6145833,0,1 @ F,0,1,1,0,6.6145833,0,1 @ F,0,0,1,0,0,0,1"
       radius="25"
       unit="px"
       method="auto"
       mode="F"
       chamfer_steps="1"
       flexible="false"
       use_knot_distance="true"
       apply_no_radius="true"
       apply_with_radius="true"
       only_selected="true"
       hide_knots="false" /><inkscape:path-effect
       effect="fillet_chamfer"
       id="path-effect3"
       is_visible="true"
       lpeversion="1"
       nodesatellites_param="F,0,0,1,0,9.2604167,0,1 @ F,0,0,1,0,9.2604167,0,1 @ F,0,0,1,0,9.2604167,0,1 @ F,0,0,1,0,9.2604167,0,1"
       radius="35"
       unit="px"
       method="auto"
       mode="F"
       chamfer_steps="1"
       flexible="false"
       use_knot_distance="true"
       apply_no_radius="true"
       apply_with_radius="true"
       only_selected="true"
       hide_knots="false" /><inkscape:path-effect
       effect="fillet_chamfer"
       id="path-effect1"
       is_visible="true"
       lpeversion="1"
       nodesatellites_param="F,0,1,1,0,6.6145833,0,1 @ F,0,0,1,0,0,0,1 @ F,0,0,1,0,0,0,1 @ F,0,1,1,0,6.6145833,0,1"
       radius="25"
       unit="px"
       method="auto"
       mode="F"
       chamfer_steps="1"
       flexible="false"
       use_knot_distance="true"
       apply_no_radius="true"
       apply_with_radius="true"
       only_selected="true"
       hide_knots="false" /><inkscape:path-effect
       effect="fillet_chamfer"
       id="path-effect2"
       is_visible="true"
       lpeversion="1"
       nodesatellites_param="F,0,1,1,0,0.52916667,0,1 @ F,0,0,1,0,0,0,1 @ F,0,0,1,0,0,0,1 @ F,0,1,1,0,0.52916667,0,1"
       radius="3"
       unit="px"
       method="auto"
       mode="F"
       chamfer_steps="1"
       flexible="false"
       use_knot_distance="true"
       apply_no_radius="true"
       apply_with_radius="true"
       only_selected="true"
       hide_knots="false" /><style
       id="style1">.cls-1{fill:#5865f2;}</style></defs><g
     inkscape:label="Layer 1"
     inkscape:groupmode="layer"
     id="layer1"><rect
       style="fill:#5865f2;stroke-width:5.64594;stroke-linecap:round;stroke-linejoin:round"
       id="rect2"
       width="270.93332"
       height="270.93332"
       x="0"
       y="0"
       inkscape:label="Background" /><g
       id="g1"
       inkscape:label="Papyrus"
       transform="translate(0,-5.9202743)"><path
         id="rect1"
         style="font-variation-settings:'wght' 700;fill:#d9d9d9;fill-opacity:1;stroke-width:8.24969;stroke-linecap:round;stroke-linejoin:round"
         d="m 135.72932,86.803837 h 83.83404 a 6.6145833,6.6145833 45 0 1 6.61458,6.614583 v 107.77761 a 6.6145833,6.6145833 135 0 1 -6.61458,6.61458 h -84.09669 z"
         sodipodi:nodetypes="ccccc"
         inkscape:label="right"
         inkscape:original-d="m 135.72932,86.803837 h 90.44862 V 207.81061 h -90.71127 z"
         inkscape:path-effect="#path-effect4" /><path
         class="cls-1"
         d="m 198.36289,131.36441 a 41.794729,41.794729 0 0 0 -10.42583,-3.20765 28.642208,28.642208 0 0 0 -1.33553,2.71478 38.825575,38.825575 0 0 0 -11.57056,0 28.765427,28.765427 0 0 0 -1.33552,-2.71478 42.088862,42.088862 0 0 0 -10.43378,3.2156 c -6.59813,9.76204 -8.38677,19.28162 -7.49245,28.66606 v 0 a 42.025267,42.025267 0 0 0 12.78685,6.41926 30.88398,30.88398 0 0 0 2.73862,-4.41598 27.195392,27.195392 0 0 1 -4.31263,-2.05892 c 0.3617,-0.26235 0.71546,-0.53262 1.05729,-0.79498 a 30.037353,30.037353 0 0 0 25.56574,0 c 0.34581,0.28223 0.69956,0.55251 1.05729,0.79498 a 27.298735,27.298735 0 0 1 -4.32058,2.06291 30.605746,30.605746 0 0 0 2.73862,4.41199 41.834477,41.834477 0 0 0 12.79479,-6.41528 v 0 c 1.04934,-10.88293 -1.79262,-20.31508 -7.51232,-28.67799 z m -25.93539,22.90263 c -2.49219,0 -4.55112,-2.26164 -4.55112,-5.04398 0,-2.78233 1.98739,-5.06386 4.54317,-5.06386 2.55578,0 4.59881,2.28153 4.55508,5.06386 -0.0437,2.78234 -2.00725,5.04398 -4.54713,5.04398 z m 16.78944,0 c -2.49616,0 -4.54714,-2.26164 -4.54714,-5.04398 0,-2.78233 1.98738,-5.06386 4.54714,-5.06386 2.55976,0 4.58688,2.28153 4.54317,5.06386 -0.0437,2.78234 -2.00329,5.04398 -4.54317,5.04398 z"
         id="path1-8"
         style="stroke-width:0.397477;fill:#5865f2;fill-opacity:1"
         inkscape:label="Discord" /><path
         style="font-variation-settings:'wght' 700;display:inline;fill:#989898;fill-opacity:1;stroke:none;stroke-width:5.29167;stroke-linecap:round;stroke-linejoin:round;stroke-opacity:1"
         d="m 135.46667,207.81061 10.92041,-11.84056 h -10.92041 v 11.84056"
         id="path2"
         inkscape:label="Binding" /><path
         id="path1"
         style="font-variation-settings:'wght' 700;display:inline;fill:#ffffff;stroke-width:8.24969;stroke-linecap:round;stroke-linejoin:round"
         d="M 51.369977,74.963272 H 135.72932 L 146.38708,195.97005 H 51.369977 a 6.6145833,6.6145833 45 0 1 -6.614583,-6.61458 V 81.577855 a 6.6145833,6.6145833 135 0 1 6.614583,-6.614583 z"
         sodipodi:nodetypes="ccccc"
         inkscape:label="left"
         inkscape:original-d="M 44.755394,74.963272 H 135.72932 L 146.38708,195.97005 H 44.755394 Z"
         inkscape:path-effect="#path-effect1" /><text
         xml:space="preserve"
         transform="matrix(0.26458333,0,0,0.26458333,1.959584,-16.034824)"
         id="text4"
         style="font-size:333.333px;font-family:'Noto Sans';-inkscape-font-specification:'Noto Sans, @wght=700';font-variation-settings:'wght' 700;white-space:pre;shape-inside:url(#rect4);display:inline;fill:#5865f2;fill-opacity:1;stroke-width:20;stroke-linecap:round;stroke-linejoin:round"
         inkscape:label="D"><tspan
           x="234.97461"
           y="687.60393"
           id="tspan4"><tspan
             style="font-weight:bold;font-family:'gg sans';-inkscape-font-specification:'gg sans Bold'"
             id="tspan1">D</tspan></tspan></text></g></g></svg>
